<svg id="Layer_1" data-name="Layer 1" xmlns="http://www.w3.org/2000/svg" viewBox="0 0 272.44 201.35">
    <defs>
        <style>
            .cls-1{fill:#fff;}.cls-1,.cls-2{stroke:#3d4752;stroke-miterlimit:10;stroke-width:3px;}.cls-2{fill:none;}.cls-3{fill:#3d4752;}
        </style>
    </defs>
    <title>featured-image</title>
    <path class="cls-1"
          d="M1.5,84.28a4.32,4.32,0,0,1,4.37-4.37h64a4.38,4.38,0,0,1,4.37,4.37v35.2a4.44,4.44,0,0,1-4.37,4.37h-64a4.38,4.38,0,0,1-4.37-4.37V84.28Z"/>
    <line class="cls-2" x1="140.09" y1="36.29" x2="140.09" y2="66.02"/>
    <path class="cls-3"
          d="M140.09,75.07c-1.58-4.26-4.28-9.54-7.13-12.82l7.13,2.58,7.13-2.58C144.36,65.53,141.67,70.82,140.09,75.07Z"/>
    <line class="cls-2" x1="106.58" y1="101.84" x2="83.31" y2="101.84"/>
    <path class="cls-3"
          d="M74.26,101.84c4.26-1.58,9.54-4.28,12.82-7.13l-2.58,7.13L87.08,109C83.8,106.11,78.52,103.41,74.26,101.84Z"/>
    <line class="cls-2" x1="208.61" y1="177.88" x2="186.13" y2="177.88"/>
    <path class="cls-3"
          d="M177.08,177.88c4.26-1.58,9.54-4.28,12.82-7.13l-2.58,7.13L189.9,185C186.62,182.15,181.34,179.46,177.08,177.88Z"/>
    <rect class="cls-1" x="102.88" y="1.5" width="73.63" height="34.79" rx="17.4" ry="17.4"/>
    <path class="cls-1"
          d="M137.38,126.87l-28.76-21.06a5,5,0,0,1-.06-8l28.76-21.72a5,5,0,0,1,6,0l28.76,21.72a5,5,0,0,1-.06,8l-28.76,21.06A5,5,0,0,1,137.38,126.87Z"/>
    <line class="cls-2" x1="174.09" y1="101.44" x2="196.49" y2="101.44"/>
    <path class="cls-3"
          d="M205.54,101.44c-4.26,1.58-9.54,4.28-12.82,7.13l2.58-7.13-2.58-7.13C196,97.16,201.28,99.86,205.54,101.44Z"/>
    <line class="cls-2" x1="234.82" y1="123.85" x2="234.82" y2="151.77"/>
    <path class="cls-3"
          d="M234.82,160.82c-1.58-4.26-4.28-9.54-7.13-12.82l7.13,2.58L242,148C239.1,151.28,236.4,156.56,234.82,160.82Z"/>
    <path class="cls-1"
          d="M252.4,124.23H203.5a4.79,4.79,0,0,1-4.45-6.55l13.73-34.74a4.79,4.79,0,0,1,4.5-3l48.92,0.44a4.79,4.79,0,0,1,4.4,6.57l-13.75,34.29A4.79,4.79,0,0,1,252.4,124.23Z"/>
    <line class="cls-2" x1="37.88" y1="123.85" x2="37.88" y2="146.24"/>
    <path class="cls-3"
          d="M37.88,155.29c-1.58-4.26-4.28-9.54-7.13-12.82l7.13,2.58L45,142.47C42.16,145.75,39.46,151,37.88,155.29Z"/>
    <path class="cls-1"
          d="M104,160.28a4.32,4.32,0,0,1,4.37-4.37h64a4.38,4.38,0,0,1,4.37,4.37v35.2a4.44,4.44,0,0,1-4.37,4.37h-64a4.38,4.38,0,0,1-4.37-4.37v-35.2Z"/>
    <path class="cls-1"
          d="M1.5,190.13V159.69a4,4,0,0,1,4.37-3.78h64s4.37,0.24,4.37,3.78v39.88c-0.08,1-14.42-14.81-35-5.26S4.36,200.19,1.5,190.13Z"/>
    <path class="cls-1"
          d="M206.58,169.13a3.61,3.61,0,0,1,3.86-3.39l56.64-9.82c2.09,0,3.86,1.39,3.86,3.29v37.25a3.71,3.71,0,0,1-3.86,3.39H210.44a3.66,3.66,0,0,1-3.86-3.39V169.13Z"/>
</svg>
